<?xml version="1.0" standalone="no"?>
<!DOCTYPE svg PUBLIC "-//W3C//DTD SVG 20010904//EN"
 "http://www.w3.org/TR/2001/REC-SVG-20010904/DTD/svg10.dtd">
<svg version="1.0" xmlns="http://www.w3.org/2000/svg"
 width="690.000000pt" height="282.000000pt" viewBox="0 0 690.000000 282.000000"
 preserveAspectRatio="xMidYMid meet">

<g transform="translate(0.000000,282.000000) scale(0.100000,-0.100000)"
fill="#000000" stroke="none">
<path d="M0 1410 l0 -1410 3450 0 3450 0 0 1410 0 1410 -3450 0 -3450 0 0
-1410z m4312 1242 c51 -66 100 -129 108 -141 19 -28 73 -40 175 -41 135 0 508
-21 545 -30 81 -21 163 -101 194 -190 10 -30 16 -81 16 -152 0 -106 -12 -148
-25 -86 -17 83 -68 220 -101 270 -49 76 -26 72 -574 98 -276 12 -278 13 -327
69 -57 64 -153 182 -163 201 -13 22 -166 28 -767 29 l-512 1 -25 -22 c-14 -13
-61 -79 -104 -148 l-79 -125 -309 -6 c-422 -8 -454 -15 -516 -105 -28 -39
-110 -173 -138 -222 l-15 -27 -3 37 c-9 103 41 234 117 306 60 57 120 79 221
81 41 1 127 6 190 11 63 5 161 10 218 10 56 0 119 5 140 12 40 12 34 5 187
230 l39 58 707 0 708 0 93 -118z m-1867 -46 c4 -19 2 -43 -4 -54 -10 -19 -22
-21 -134 -24 -105 -3 -124 -1 -139 15 -18 17 -23 52 -12 81 5 14 28 16 145 16
l138 0 6 -34z m1250 -230 c74 -26 134 -55 174 -84 47 -34 141 -124 141 -135 0
-5 11 -23 24 -40 76 -101 116 -276 96 -414 -7 -43 -16 -86 -21 -95 -5 -10 -9
-25 -9 -33 0 -8 -10 -32 -23 -53 -12 -20 -29 -50 -37 -67 -8 -16 -49 -64 -90
-105 -213 -214 -530 -244 -785 -74 -113 74 -183 167 -233 306 -34 96 -42 252
-17 348 54 213 217 384 425 446 30 9 60 18 65 20 29 11 244 -4 290 -20z
m-1705 -394 c0 -4 -12 -15 -28 -24 -15 -9 -36 -26 -46 -37 -18 -20 -18 -21 12
-56 98 -111 41 -288 -121 -372 -47 -25 -63 -28 -161 -30 l-109 -1 -49 -64
c-110 -143 -243 -262 -351 -314 -233 -112 -431 -30 -414 170 11 138 78 259
221 401 193 191 420 292 676 302 107 4 134 2 183 -15 l59 -19 56 33 c57 35 72
40 72 26z m548 -454 c26 -26 14 -103 -28 -184 -22 -43 -40 -79 -40 -81 0 -10
60 13 88 34 35 26 54 25 32 -2 -22 -27 -75 -54 -112 -58 -26 -2 -52 -17 -94
-55 -90 -81 -185 -117 -258 -98 -35 9 -60 59 -52 104 l5 36 -29 -35 c-41 -51
-128 -107 -176 -115 -34 -5 -46 -2 -63 15 -40 40 -19 99 75 216 76 95 77 99
55 127 l-19 23 -40 -45 c-21 -25 -50 -58 -64 -74 -16 -19 -27 -25 -32 -18 -7
11 157 202 173 202 5 0 6 -11 3 -25 -3 -17 4 -34 22 -55 14 -18 26 -39 26 -48
0 -9 -23 -46 -51 -82 -76 -98 -109 -152 -109 -176 0 -65 89 -20 204 104 144
154 209 215 270 251 45 27 60 31 69 22 9 -10 8 -14 -5 -22 -9 -5 -40 -30 -70
-54 -131 -113 -217 -265 -173 -308 37 -38 131 -5 220 76 48 43 48 44 32 67
-39 56 -9 198 51 247 30 25 71 30 90 11z m52 -328 c0 -43 -94 -159 -182 -225
-59 -44 -116 -110 -105 -122 17 -16 75 16 140 76 74 68 125 98 152 87 52 -20
-44 -116 -116 -116 -26 0 -36 -28 -16 -47 31 -31 76 -7 175 96 52 53 89 86 83
74 -6 -12 -11 -38 -11 -58 0 -19 -6 -50 -13 -68 -8 -18 -13 -36 -13 -42 1 -13
-67 -30 -88 -22 -27 10 -18 22 17 22 28 0 35 6 55 45 12 24 22 53 22 65 -1 16
-10 10 -48 -32 -26 -28 -65 -63 -86 -77 -59 -39 -126 -34 -126 10 0 30 -1 30
-46 -1 -20 -14 -51 -25 -68 -25 -27 -1 -36 -8 -71 -66 -44 -71 -60 -90 -69
-76 -3 5 19 46 49 93 30 46 55 92 55 102 0 9 6 17 13 17 6 1 43 46 81 100 85
124 158 200 192 200 13 0 24 -5 24 -10z m1810 -6 c0 -26 -37 -71 -113 -136
-101 -86 -126 -123 -47 -67 14 10 37 21 51 24 44 11 42 -18 -6 -91 -25 -37
-43 -69 -41 -72 12 -11 49 15 90 63 47 54 112 103 123 91 3 -3 12 -1 19 5 19
16 44 4 44 -21 0 -12 -7 -34 -15 -50 -13 -26 -13 -30 -1 -30 8 0 32 27 54 60
38 57 39 60 19 61 -19 2 -19 2 3 6 14 3 46 25 73 51 52 51 63 46 16 -8 l-30
-35 38 -4 38 -5 -45 -5 c-42 -6 -48 -10 -87 -71 -83 -126 -42 -150 71 -41 64
62 116 100 116 86 0 -3 -17 -21 -39 -40 -42 -38 -67 -86 -57 -111 7 -18 37
-11 77 18 23 17 26 25 22 59 -6 43 16 89 43 89 24 0 28 -29 10 -67 -9 -20 -15
-38 -12 -41 3 -2 23 11 45 31 22 20 53 43 70 51 34 18 97 21 106 6 4 -6 12 -7
18 -3 9 5 9 3 1 -8 -52 -67 -104 -143 -100 -146 9 -9 94 57 143 110 46 51 50
53 61 36 17 -27 15 -40 -18 -83 -31 -41 -38 -66 -19 -66 5 0 46 34 89 75 43
41 91 80 105 85 35 13 85 13 85 -1 0 -6 7 -9 15 -5 18 7 13 -3 -41 -79 -30
-42 -33 -51 -19 -53 20 -4 62 34 146 131 60 69 79 82 34 23 -29 -38 -33 -56
-7 -33 28 26 72 39 88 26 17 -14 9 -33 -38 -93 -41 -52 -46 -66 -25 -66 21 0
115 105 191 213 74 105 116 147 147 147 48 0 9 -63 -94 -152 -76 -65 -126
-121 -77 -85 59 42 120 56 120 28 0 -5 -16 -33 -36 -62 -54 -81 -58 -89 -38
-89 9 0 52 37 95 83 43 45 79 77 79 70 0 -6 -5 -15 -11 -19 -16 -9 -69 -95
-69 -111 0 -15 36 -18 45 -3 3 6 12 10 18 10 7 0 3 -7 -7 -15 -29 -22 -67 -19
-73 5 -5 19 -7 18 -40 -10 -35 -31 -57 -37 -68 -19 -12 18 4 56 45 105 22 27
35 51 30 52 -24 8 -73 -24 -135 -89 -57 -61 -86 -82 -77 -56 1 4 -11 1 -28 -8
-66 -34 -68 20 -4 96 37 42 43 55 30 57 -40 8 -124 -69 -235 -218 -81 -107
-77 -104 -90 -96 -7 5 14 39 55 92 55 70 61 82 39 72 -24 -11 -29 -10 -41 7
-13 17 -15 17 -32 2 -10 -9 -32 -20 -49 -23 -25 -5 -34 -2 -44 14 -13 20 -13
20 -40 1 -71 -50 -97 -1 -38 73 29 36 37 58 21 58 -4 0 -31 -24 -59 -54 -28
-30 -75 -68 -104 -85 -37 -21 -68 -50 -99 -92 -57 -79 -116 -129 -150 -129
-35 0 -40 7 -29 39 14 39 53 74 133 118 78 43 97 67 45 56 -37 -7 -60 14 -52
47 8 30 -24 25 -63 -10 -55 -48 -110 -52 -121 -10 -5 20 -6 20 -32 1 -58 -42
-111 -31 -98 19 7 28 -24 26 -60 -4 -38 -31 -67 -46 -92 -46 -23 0 -46 34 -35
53 5 6 -9 -3 -29 -20 -39 -34 -61 -41 -72 -22 -12 18 4 56 45 105 22 27 35 51
30 52 -24 8 -73 -24 -135 -89 -57 -61 -86 -82 -77 -56 1 4 -11 1 -28 -8 -66
-34 -68 20 -4 96 37 42 43 55 30 57 -40 8 -121 -66 -236 -218 -67 -88 -88
-108 -91 -86 -2 10 232 304 268 337 l26 24 -25 -35 c-38 -53 -44 -67 -17 -43
59 53 123 50 95 -6 -8 -14 -28 -43 -45 -65 -34 -42 -38 -56 -18 -56 21 0 115
105 191 213 38 54 82 109 98 123 34 27 68 32 68 8z m-490 -10 c0 -31 -42 -84
-141 -177 -85 -80 -99 -98 -99 -125 0 -20 5 -32 13 -32 17 0 97 59 97 71 0 5
6 9 13 9 22 -1 -84 -90 -107 -90 -27 0 -46 18 -46 44 0 18 -2 18 -27 -6 -40
-37 -73 -45 -80 -20 -5 20 -6 20 -40 -4 -50 -34 -93 -30 -93 9 l0 20 -22 -20
c-46 -42 -88 -49 -88 -15 0 9 21 42 46 74 47 60 51 87 11 67 -12 -6 -57 -45
-99 -87 -43 -42 -80 -73 -84 -70 -3 4 21 39 55 79 56 67 73 99 53 99 -4 0 -32
-25 -62 -55 -30 -30 -59 -55 -65 -55 -6 0 -27 -12 -46 -26 -66 -50 -129 -56
-129 -13 0 21 0 21 -35 -1 -38 -24 -65 -21 -65 7 0 13 -3 14 -12 5 -7 -7 -15
-12 -19 -12 -4 0 23 32 61 70 38 39 71 70 74 70 3 0 -14 -27 -39 -61 -25 -34
-45 -65 -45 -70 0 -25 43 -3 86 44 51 55 102 97 117 97 5 0 -11 -19 -35 -42
-76 -75 -87 -142 -19 -116 46 17 62 38 55 74 -8 45 19 93 54 94 17 0 15 -45
-3 -80 -25 -48 4 -37 65 25 57 58 79 67 87 36 4 -17 7 -17 34 -4 68 34 79 -19
19 -95 -44 -55 -47 -62 -25 -62 8 0 43 29 78 64 34 35 78 73 97 85 36 22 94
28 105 11 3 -5 13 -6 21 -3 9 3 -5 -22 -30 -57 -49 -67 -54 -80 -31 -80 25 0
82 58 110 115 60 118 235 273 235 209z m-870 -128 c0 -16 -18 -31 -27 -22 -8
8 5 36 17 36 5 0 10 -6 10 -14z m-180 -35 c-5 -11 -10 -36 -10 -56 0 -19 -6
-50 -13 -68 -8 -18 -14 -36 -15 -42 -1 -13 -65 -30 -86 -22 -27 10 -18 22 17
22 28 0 35 6 55 45 42 83 28 91 -41 22 -93 -92 -86 -75 12 28 47 50 87 90 88
90 2 0 -1 -9 -7 -19z m3214 -3 c-4 -7 -31 -44 -59 -83 -72 -98 -72 -100 -44
-85 13 7 44 29 69 48 l45 36 -30 -33 c-16 -18 -52 -46 -80 -62 -32 -19 -71
-55 -109 -104 -59 -76 -108 -115 -143 -115 -29 0 -33 8 -21 42 11 32 78 90
148 127 45 23 80 60 84 87 2 13 134 154 144 154 2 0 0 -6 -4 -12z m-3802 -659
c5 -3 31 -5 56 -3 l47 2 -44 -38 -45 -37 13 -43 c7 -23 10 -44 7 -47 -2 -3
-21 7 -42 21 -41 28 -32 30 -108 -20 l-25 -15 17 51 17 52 -38 32 c-43 36 -45
42 -14 43 75 1 74 1 93 53 l18 50 19 -47 c10 -26 23 -51 29 -54z m2653 51 c9
-27 22 -51 28 -51 7 -1 23 -3 37 -4 14 -1 32 -3 40 -4 9 -1 0 -14 -25 -35
l-40 -34 17 -52 17 -51 -27 17 c-15 9 -36 23 -46 30 -17 12 -24 11 -43 -1 -13
-8 -34 -22 -47 -31 l-25 -15 17 51 17 52 -38 32 c-20 17 -37 34 -37 38 0 4 16
5 37 3 52 -5 59 1 79 56 10 27 19 49 20 49 1 0 10 -22 19 -50z m-2375 26 c0
-2 -18 -35 -40 -72 -44 -76 -51 -114 -21 -114 25 0 64 47 101 121 29 56 46 76
56 66 9 -9 -114 -241 -139 -265 -27 -25 -76 -37 -97 -23 -13 9 -13 13 4 28 13
13 20 15 23 6 9 -24 42 -13 72 24 40 49 39 55 -5 33 -71 -36 -83 2 -34 106 31
64 54 94 71 94 5 0 9 -2 9 -4z m810 -25 c0 -5 -12 -29 -26 -55 -27 -48 -26
-53 8 -35 34 18 42 -4 18 -51 -12 -23 -19 -44 -16 -47 8 -9 47 24 72 60 13 20
33 39 44 42 26 8 53 -13 47 -37 -6 -21 -5 -21 26 -7 13 6 32 26 40 45 17 34
17 34 -8 34 -14 0 -25 5 -25 10 0 6 13 10 30 10 19 0 34 7 42 20 7 11 19 20
26 20 9 0 11 -7 7 -20 -5 -16 -2 -20 19 -20 14 0 26 -4 26 -10 0 -5 -15 -10
-32 -10 -30 -1 -37 -7 -71 -66 -21 -35 -35 -69 -32 -74 9 -15 64 20 80 50 33
63 85 78 95 28 5 -30 11 -29 74 16 16 12 32 15 43 11 10 -5 24 -7 31 -6 16 3
15 -3 -9 -50 -11 -23 -18 -43 -16 -46 9 -8 87 69 87 86 0 21 19 41 38 41 9 0
13 -7 9 -20 -3 -13 0 -20 9 -20 21 0 17 -34 -6 -55 -21 -19 -27 -45 -10 -45 5
0 36 27 68 60 64 64 102 78 102 38 -1 -13 -7 -34 -15 -48 -18 -31 -18 -40 -3
-40 18 0 78 62 78 81 0 19 26 33 35 19 4 -6 14 -6 27 1 15 8 23 8 32 -1 8 -8
4 -24 -18 -62 l-28 -52 27 18 c15 10 29 15 32 13 10 -11 -45 -37 -87 -41 -43
-4 -46 -6 -70 -57 -34 -72 -40 -80 -51 -74 -5 3 10 43 32 87 39 78 40 81 15
65 -28 -18 -56 -22 -56 -8 0 5 -14 4 -30 -2 -25 -9 -33 -9 -39 2 -7 11 -13 11
-32 -3 -48 -33 -76 -5 -40 40 47 60 12 60 -40 0 -21 -24 -46 -43 -56 -42 -11
1 -30 -23 -58 -73 -45 -82 -70 -105 -85 -81 -25 39 4 92 80 142 l25 17 -39 -6
-39 -6 6 36 c5 35 4 36 -14 26 -11 -6 -23 -17 -26 -25 -3 -8 -19 -22 -36 -31
-29 -15 -32 -15 -46 4 -16 20 -16 20 -43 0 -23 -17 -30 -18 -43 -7 -9 7 -14
18 -12 24 2 6 8 22 12 34 l7 24 -29 -18 c-15 -10 -37 -28 -48 -40 -29 -33 -62
-39 -76 -16 -12 19 -13 19 -46 0 -28 -17 -34 -18 -39 -5 -3 8 4 33 16 56 15
31 17 41 7 41 -17 0 -50 -36 -71 -78 -16 -31 -41 -37 -29 -6 4 12 -1 11 -28
-4 -19 -10 -49 -18 -68 -18 -33 1 -36 -2 -64 -66 -29 -65 -47 -85 -47 -53 0 8
26 66 57 129 51 103 60 115 83 114 14 -1 31 0 39 3 26 7 24 -31 -4 -72 l-26
-40 30 15 c39 21 63 53 97 131 16 36 34 65 41 65 7 0 13 -4 13 -9z m1080 0 c0
-5 -12 -29 -26 -55 -27 -48 -26 -53 8 -35 34 18 42 -3 19 -49 -37 -73 -20 -71
51 3 34 36 60 55 75 55 37 0 27 -27 -22 -62 -48 -34 -54 -45 -30 -54 22 -9 93
41 107 74 23 52 67 87 55 43 -3 -13 1 -21 14 -24 25 -7 24 -20 -6 -55 -46 -55
-23 -59 35 -6 22 20 40 32 40 26 0 -16 -82 -82 -102 -82 -25 0 -24 42 2 65 23
21 26 35 6 35 -8 0 -31 -19 -50 -42 -20 -23 -44 -42 -54 -43 -9 -1 -27 -5 -39
-9 -16 -5 -27 -2 -39 12 -16 20 -17 20 -50 0 -29 -17 -35 -18 -40 -5 -3 8 4
33 16 56 15 31 17 41 7 41 -17 0 -50 -36 -71 -78 -9 -18 -21 -30 -26 -27 -7 4
-6 13 0 26 6 10 8 19 6 19 -3 0 5 16 18 35 13 19 34 60 47 90 12 30 29 55 36
55 7 0 13 -4 13 -9z m-1483 -81 c-3 -13 0 -20 9 -20 20 0 17 -31 -6 -60 -41
-52 -16 -54 40 -4 22 20 40 32 40 26 0 -13 -56 -61 -88 -75 -36 -17 -51 6 -26
40 35 48 36 53 17 52 -10 0 -34 -20 -53 -43 l-35 -44 -69 0 -68 0 5 34 c5 31
4 33 -13 24 -10 -6 -25 -18 -32 -28 -7 -11 -24 -24 -37 -31 -19 -11 -26 -10
-38 2 -13 13 -13 21 -4 48 14 41 49 79 72 79 20 0 39 -28 32 -47 -8 -22 17
-14 41 12 35 37 52 32 27 -9 -26 -41 -27 -69 -4 -64 9 2 28 24 41 51 14 26 31
47 38 47 15 0 7 -30 -18 -69 -7 -11 -9 -23 -5 -27 11 -11 58 27 77 64 22 41
40 62 52 62 6 0 8 -9 5 -20z"/>
<path d="M3342 2335 c-102 -35 -193 -96 -262 -176 -62 -71 -120 -180 -120
-222 0 -14 -4 -29 -10 -32 -14 -9 -13 -210 1 -254 47 -145 118 -259 196 -312
27 -18 50 -36 53 -40 3 -4 30 -18 60 -32 127 -57 225 -75 324 -57 131 23 201
54 298 130 145 114 236 341 207 515 -24 142 -80 253 -176 347 -146 142 -380
196 -571 133z m329 -66 c149 -48 239 -128 316 -280 12 -26 23 -58 23 -71 0
-13 5 -29 11 -35 11 -11 7 -174 -5 -228 -18 -74 -72 -161 -142 -231 -113 -111
-219 -150 -384 -142 -145 8 -234 49 -337 156 -65 67 -108 153 -130 257 -22
109 -7 209 49 316 56 110 172 217 268 247 19 6 49 16 65 21 56 18 197 13 266
-10z"/>
<path d="M3398 2147 c-29 -11 -38 -27 -15 -27 22 0 64 -44 76 -79 9 -29 8 -39
-10 -71 -24 -42 -54 -60 -100 -60 -40 0 -99 56 -99 94 0 58 -46 12 -91 -89
-79 -179 14 -411 201 -499 59 -28 74 -31 165 -31 86 0 108 4 155 26 80 38 152
107 188 181 59 123 66 183 31 289 -38 118 -99 192 -194 238 -28 13 -58 28 -67
33 -25 12 -208 8 -240 -5z"/>
<path d="M1548 1920 c-191 -34 -394 -148 -571 -319 -185 -179 -262 -361 -194
-462 36 -54 78 -71 173 -67 68 3 90 8 146 36 102 52 223 173 370 368 5 7 -10
22 -43 42 -66 42 -55 58 17 25 31 -14 59 -21 63 -17 4 5 43 56 87 114 43 58
113 140 155 182 l75 77 -30 11 c-42 15 -190 21 -248 10z"/>
<path d="M1795 1800 c-70 -82 -198 -249 -216 -282 -9 -16 -4 -18 55 -18 153 0
286 130 286 279 0 30 -7 48 -28 72 l-27 31 -70 -82z"/>
<path d="M2457 1493 c-43 -48 -62 -159 -33 -198 13 -18 16 -16 44 28 33 53 55
122 50 158 -4 30 -38 37 -61 12z"/>
<path d="M2527 1171 c-38 -34 -153 -189 -145 -196 8 -8 116 94 153 145 20 27
35 57 33 67 -2 14 -10 11 -41 -16z"/>
<path d="M2545 991 c-38 -23 -80 -69 -72 -77 18 -18 117 52 117 82 0 19 -9 18
-45 -5z"/>
<path d="M4362 1193 c-15 -6 -106 -132 -100 -139 3 -2 32 25 66 60 69 72 81
98 34 79z"/>
<path d="M5872 1193 c-15 -6 -106 -132 -100 -139 3 -2 33 25 67 61 69 74 79
97 33 78z"/>
<path d="M4476 989 c-18 -26 -22 -69 -6 -69 17 0 45 69 33 81 -8 8 -15 4 -27
-12z"/>
<path d="M4798 993 c-19 -21 -25 -73 -8 -73 15 0 32 39 28 67 -3 25 -3 25 -20
6z"/>
<path d="M4417 971 c-65 -58 -89 -142 -35 -125 56 17 71 38 72 98 1 31 0 56
-1 56 -1 0 -17 -13 -36 -29z"/>
<path d="M4955 986 c-38 -17 -105 -90 -105 -115 0 -54 60 -30 130 50 64 74 54
100 -25 65z"/>
<path d="M5325 984 c-65 -33 -121 -112 -98 -135 16 -16 59 11 117 69 32 33 47
56 43 66 -8 20 -24 20 -62 0z"/>
<path d="M4802 740 c-80 -54 -117 -110 -73 -110 18 0 141 123 141 141 0 13 -3
12 -68 -31z"/>
<path d="M3819 1128 c-54 -55 -126 -155 -117 -163 8 -8 166 152 183 185 25 49
-6 38 -66 -22z"/>
<path d="M3122 997 c-15 -18 -22 -61 -12 -78 7 -10 13 -4 25 23 23 58 16 90
-13 55z"/>
<path d="M3513 973 c-65 -44 -103 -102 -80 -122 20 -16 73 16 123 73 24 28 43
55 41 61 -7 20 -44 15 -84 -12z"/>
<path d="M5825 758 c-48 -34 -115 -101 -115 -115 0 -39 71 12 128 91 36 50 33
57 -13 24z"/>
<path d="M3454 295 c-4 -9 -2 -21 5 -28 13 -13 18 -9 23 17 4 24 -20 33 -28
11z"/>
<path d="M3687 303 c-4 -3 -7 -15 -7 -25 0 -26 24 -17 28 10 3 21 -8 29 -21
15z"/>
<path d="M3795 280 c-19 -36 -19 -60 -2 -60 22 0 47 34 47 63 0 37 -25 35 -45
-3z"/>
<path d="M4080 278 c-34 -55 -23 -78 17 -35 12 12 23 31 25 41 5 33 -20 29
-42 -6z"/>
<path d="M3155 275 c-30 -29 -32 -45 -6 -45 20 0 51 35 51 57 0 20 -19 15 -45
-12z"/>
<path d="M4231 276 c-23 -25 -21 -46 3 -46 14 0 46 42 46 60 0 18 -26 11 -49
-14z"/>
<path d="M3420 235 c0 -28 12 -32 29 -11 10 12 8 17 -8 26 -19 9 -21 8 -21
-15z"/>
<path d="M3646 243 c-10 -25 11 -40 29 -22 13 13 12 16 -4 26 -16 10 -20 9
-25 -4z"/>
<path d="M3774 152 c-35 -29 -57 -82 -34 -82 5 0 21 23 35 50 14 28 24 50 23
50 -2 -1 -12 -9 -24 -18z"/>
<path d="M4533 298 c-25 -33 -25 -40 1 -23 26 17 35 35 17 35 -5 0 -13 -6 -18
-12z"/>
<path d="M2657 303 c-4 -3 -7 -15 -7 -25 0 -26 24 -17 28 10 3 21 -8 29 -21
15z"/>
<path d="M2616 243 c-10 -25 11 -40 29 -22 13 13 12 16 -4 26 -16 10 -20 9
-25 -4z"/>
</g>
</svg>
